<mxfile host="Electron" agent="Mozilla/5.0 (Windows NT 10.0; Win64; x64) AppleWebKit/537.36 (KHTML, like Gecko) draw.io/25.0.2 Chrome/128.0.6613.186 Electron/32.2.5 Safari/537.36" version="25.0.2">
  <diagram name="Page-1" id="ymY6IpkMiXJhyvQpklsC">
    <mxGraphModel dx="1234" dy="794" grid="1" gridSize="10" guides="1" tooltips="1" connect="1" arrows="1" fold="1" page="1" pageScale="1" pageWidth="850" pageHeight="1100" math="0" shadow="0">
      <root>
        <mxCell id="0" />
        <mxCell id="1" parent="0" />
        <mxCell id="rZwhFmC9a54iaUENyT74-53" value="&lt;div&gt;receptionist&lt;/div&gt;" style="shape=umlActor;verticalLabelPosition=bottom;verticalAlign=top;html=1;outlineConnect=0;" parent="1" vertex="1">
          <mxGeometry x="110" y="100" width="30" height="60" as="geometry" />
        </mxCell>
        <mxCell id="rZwhFmC9a54iaUENyT74-54" value="user" style="shape=umlActor;verticalLabelPosition=bottom;verticalAlign=top;html=1;outlineConnect=0;" parent="1" vertex="1">
          <mxGeometry x="130" y="440" width="30" height="60" as="geometry" />
        </mxCell>
        <mxCell id="rZwhFmC9a54iaUENyT74-55" value="&lt;br&gt;-&lt;div&gt;&lt;br/&gt;&lt;/div&gt;" style="whiteSpace=wrap;html=1;aspect=fixed;direction=east;" parent="1" vertex="1">
          <mxGeometry x="220" y="20" width="710" height="710" as="geometry" />
        </mxCell>
        <mxCell id="rZwhFmC9a54iaUENyT74-56" value="&lt;font size=&quot;3&quot;&gt;members&lt;/font&gt;&lt;div&gt;&lt;font size=&quot;3&quot;&gt;manage&lt;/font&gt;&lt;/div&gt;" style="ellipse;whiteSpace=wrap;html=1;" parent="1" vertex="1">
          <mxGeometry x="280" y="70" width="100" height="50" as="geometry" />
        </mxCell>
        <mxCell id="rZwhFmC9a54iaUENyT74-57" value="&lt;span id=&quot;docs-internal-guid-0da1855b-7fff-348a-785c-f780212f575f&quot;&gt;&lt;span style=&quot;font-size: 11pt; font-family: Arial, sans-serif; background-color: transparent; font-variant-numeric: normal; font-variant-east-asian: normal; font-variant-alternates: normal; font-variant-position: normal; font-variant-emoji: normal; vertical-align: baseline; white-space-collapse: preserve;&quot;&gt;malfunctions&lt;/span&gt;&lt;/span&gt;" style="ellipse;whiteSpace=wrap;html=1;" parent="1" vertex="1">
          <mxGeometry x="260" y="240" width="100" height="50" as="geometry" />
        </mxCell>
        <mxCell id="rZwhFmC9a54iaUENyT74-58" value="Add" style="ellipse;whiteSpace=wrap;html=1;" parent="1" vertex="1">
          <mxGeometry x="410" y="40" width="80" height="40" as="geometry" />
        </mxCell>
        <mxCell id="rZwhFmC9a54iaUENyT74-59" value="register new" style="ellipse;whiteSpace=wrap;html=1;" parent="1" vertex="1">
          <mxGeometry x="390" y="200" width="80" height="40" as="geometry" />
        </mxCell>
        <mxCell id="rZwhFmC9a54iaUENyT74-60" value="delet" style="ellipse;whiteSpace=wrap;html=1;" parent="1" vertex="1">
          <mxGeometry x="380" y="440" width="80" height="40" as="geometry" />
        </mxCell>
        <mxCell id="rZwhFmC9a54iaUENyT74-61" value="add" style="ellipse;whiteSpace=wrap;html=1;" parent="1" vertex="1">
          <mxGeometry x="380" y="340" width="80" height="40" as="geometry" />
        </mxCell>
        <mxCell id="rZwhFmC9a54iaUENyT74-62" value="follow" style="ellipse;whiteSpace=wrap;html=1;" parent="1" vertex="1">
          <mxGeometry x="390" y="260" width="80" height="40" as="geometry" />
        </mxCell>
        <mxCell id="rZwhFmC9a54iaUENyT74-63" value="edit" style="ellipse;whiteSpace=wrap;html=1;" parent="1" vertex="1">
          <mxGeometry x="420" y="390" width="80" height="40" as="geometry" />
        </mxCell>
        <mxCell id="rZwhFmC9a54iaUENyT74-64" value="Edit" style="ellipse;whiteSpace=wrap;html=1;" parent="1" vertex="1">
          <mxGeometry x="410" y="90" width="80" height="40" as="geometry" />
        </mxCell>
        <mxCell id="rZwhFmC9a54iaUENyT74-65" value="Delet" style="ellipse;whiteSpace=wrap;html=1;" parent="1" vertex="1">
          <mxGeometry x="395" y="150" width="80" height="40" as="geometry" />
        </mxCell>
        <mxCell id="rZwhFmC9a54iaUENyT74-66" value="update database" style="ellipse;whiteSpace=wrap;html=1;" parent="1" vertex="1">
          <mxGeometry x="630" y="560" width="80" height="40" as="geometry" />
        </mxCell>
        <mxCell id="rZwhFmC9a54iaUENyT74-67" value="view details" style="ellipse;whiteSpace=wrap;html=1;" parent="1" vertex="1">
          <mxGeometry x="397.5" y="650" width="65" height="40" as="geometry" />
        </mxCell>
        <mxCell id="rZwhFmC9a54iaUENyT74-68" style="edgeStyle=orthogonalEdgeStyle;rounded=0;orthogonalLoop=1;jettySize=auto;html=1;entryX=0;entryY=0.5;entryDx=0;entryDy=0;" parent="1" edge="1">
          <mxGeometry relative="1" as="geometry">
            <mxPoint x="490" y="580" as="sourcePoint" />
            <mxPoint x="625" y="580" as="targetPoint" />
          </mxGeometry>
        </mxCell>
        <mxCell id="rZwhFmC9a54iaUENyT74-69" value="&lt;span style=&quot;font-size: 12px; text-wrap-mode: wrap; background-color: rgb(251, 251, 251);&quot;&gt;&amp;lt;&amp;lt;include&amp;gt;&amp;gt;&lt;/span&gt;" style="edgeLabel;html=1;align=center;verticalAlign=middle;resizable=0;points=[];" parent="rZwhFmC9a54iaUENyT74-68" connectable="0" vertex="1">
          <mxGeometry x="-0.024" y="-1" relative="1" as="geometry">
            <mxPoint as="offset" />
          </mxGeometry>
        </mxCell>
        <mxCell id="rZwhFmC9a54iaUENyT74-70" value="pay" style="ellipse;whiteSpace=wrap;html=1;strokeColor=default;" parent="1" vertex="1">
          <mxGeometry x="410" y="560" width="80" height="40" as="geometry" />
        </mxCell>
        <mxCell id="rZwhFmC9a54iaUENyT74-71" value="notification" style="ellipse;whiteSpace=wrap;html=1;" parent="1" vertex="1">
          <mxGeometry x="650" y="650" width="80" height="40" as="geometry" />
        </mxCell>
        <mxCell id="rZwhFmC9a54iaUENyT74-72" style="edgeStyle=orthogonalEdgeStyle;rounded=0;orthogonalLoop=1;jettySize=auto;html=1;" parent="1" source="rZwhFmC9a54iaUENyT74-67" edge="1">
          <mxGeometry relative="1" as="geometry">
            <mxPoint x="650" y="670" as="targetPoint" />
            <Array as="points">
              <mxPoint x="640" y="670" />
              <mxPoint x="640" y="670" />
            </Array>
          </mxGeometry>
        </mxCell>
        <mxCell id="rZwhFmC9a54iaUENyT74-73" value="&lt;span style=&quot;font-size: 12px; text-wrap-mode: wrap; background-color: rgb(251, 251, 251);&quot;&gt;&amp;lt;&amp;lt;exclude&amp;gt;&amp;gt;&lt;/span&gt;" style="edgeLabel;html=1;align=center;verticalAlign=middle;resizable=0;points=[];" parent="rZwhFmC9a54iaUENyT74-72" connectable="0" vertex="1">
          <mxGeometry x="-0.035" y="1" relative="1" as="geometry">
            <mxPoint as="offset" />
          </mxGeometry>
        </mxCell>
        <mxCell id="rZwhFmC9a54iaUENyT74-74" value="" style="endArrow=classic;html=1;rounded=0;" parent="1" target="rZwhFmC9a54iaUENyT74-56" edge="1">
          <mxGeometry width="50" height="50" relative="1" as="geometry">
            <mxPoint x="160" y="140" as="sourcePoint" />
            <mxPoint x="210" y="90" as="targetPoint" />
          </mxGeometry>
        </mxCell>
        <mxCell id="rZwhFmC9a54iaUENyT74-75" value="" style="endArrow=classic;html=1;rounded=0;" parent="1" target="rZwhFmC9a54iaUENyT74-57" edge="1">
          <mxGeometry width="50" height="50" relative="1" as="geometry">
            <mxPoint x="170" y="150" as="sourcePoint" />
            <mxPoint x="220" y="100" as="targetPoint" />
          </mxGeometry>
        </mxCell>
        <mxCell id="rZwhFmC9a54iaUENyT74-76" value="" style="endArrow=classic;html=1;rounded=0;entryX=0.093;entryY=0.7;entryDx=0;entryDy=0;entryPerimeter=0;exitX=1;exitY=0.5;exitDx=0;exitDy=0;" parent="1" source="rZwhFmC9a54iaUENyT74-56" target="rZwhFmC9a54iaUENyT74-58" edge="1">
          <mxGeometry width="50" height="50" relative="1" as="geometry">
            <mxPoint x="380" y="100" as="sourcePoint" />
            <mxPoint x="430" y="50" as="targetPoint" />
          </mxGeometry>
        </mxCell>
        <mxCell id="rZwhFmC9a54iaUENyT74-77" value="" style="endArrow=classic;html=1;rounded=0;exitX=1;exitY=1;exitDx=0;exitDy=0;" parent="1" source="rZwhFmC9a54iaUENyT74-56" target="rZwhFmC9a54iaUENyT74-64" edge="1">
          <mxGeometry width="50" height="50" relative="1" as="geometry">
            <mxPoint x="380" y="130" as="sourcePoint" />
            <mxPoint x="430" y="80" as="targetPoint" />
          </mxGeometry>
        </mxCell>
        <mxCell id="rZwhFmC9a54iaUENyT74-78" value="" style="endArrow=classic;html=1;rounded=0;" parent="1" target="rZwhFmC9a54iaUENyT74-65" edge="1">
          <mxGeometry width="50" height="50" relative="1" as="geometry">
            <mxPoint x="340" y="120" as="sourcePoint" />
            <mxPoint x="380" y="60" as="targetPoint" />
          </mxGeometry>
        </mxCell>
        <mxCell id="rZwhFmC9a54iaUENyT74-79" value="" style="endArrow=classic;html=1;rounded=0;exitX=1;exitY=0.5;exitDx=0;exitDy=0;" parent="1" source="rZwhFmC9a54iaUENyT74-57" edge="1">
          <mxGeometry width="50" height="50" relative="1" as="geometry">
            <mxPoint x="370" y="260" as="sourcePoint" />
            <mxPoint x="400" y="230" as="targetPoint" />
          </mxGeometry>
        </mxCell>
        <mxCell id="rZwhFmC9a54iaUENyT74-80" value="" style="endArrow=classic;html=1;rounded=0;entryX=0;entryY=0.5;entryDx=0;entryDy=0;" parent="1" target="rZwhFmC9a54iaUENyT74-62" edge="1">
          <mxGeometry width="50" height="50" relative="1" as="geometry">
            <mxPoint x="360" y="280" as="sourcePoint" />
            <mxPoint x="380" y="230" as="targetPoint" />
          </mxGeometry>
        </mxCell>
        <mxCell id="rZwhFmC9a54iaUENyT74-81" value="" style="endArrow=classic;html=1;rounded=0;entryX=0;entryY=1;entryDx=0;entryDy=0;exitX=1;exitY=0.5;exitDx=0;exitDy=0;" parent="1" target="rZwhFmC9a54iaUENyT74-61" edge="1">
          <mxGeometry width="50" height="50" relative="1" as="geometry">
            <mxPoint x="360" y="405" as="sourcePoint" />
            <mxPoint x="420" y="350" as="targetPoint" />
            <Array as="points">
              <mxPoint x="392" y="374" />
            </Array>
          </mxGeometry>
        </mxCell>
        <mxCell id="rZwhFmC9a54iaUENyT74-82" value="" style="endArrow=classic;html=1;rounded=0;entryX=0;entryY=0;entryDx=0;entryDy=0;exitX=1;exitY=1;exitDx=0;exitDy=0;" parent="1" target="rZwhFmC9a54iaUENyT74-60" edge="1">
          <mxGeometry width="50" height="50" relative="1" as="geometry">
            <mxPoint x="345.35533905932743" y="422.6776695296637" as="sourcePoint" />
            <mxPoint x="420" y="400" as="targetPoint" />
          </mxGeometry>
        </mxCell>
        <mxCell id="rZwhFmC9a54iaUENyT74-83" value="" style="endArrow=classic;html=1;rounded=0;entryX=0;entryY=0.5;entryDx=0;entryDy=0;" parent="1" target="rZwhFmC9a54iaUENyT74-63" edge="1">
          <mxGeometry width="50" height="50" relative="1" as="geometry">
            <mxPoint x="362" y="415" as="sourcePoint" />
            <mxPoint x="400" y="380" as="targetPoint" />
          </mxGeometry>
        </mxCell>
        <mxCell id="rZwhFmC9a54iaUENyT74-84" value="" style="endArrow=classic;html=1;rounded=0;entryX=0;entryY=0.5;entryDx=0;entryDy=0;exitX=1;exitY=0.5;exitDx=0;exitDy=0;" parent="1" source="rZwhFmC9a54iaUENyT74-89" target="rZwhFmC9a54iaUENyT74-70" edge="1">
          <mxGeometry width="50" height="50" relative="1" as="geometry">
            <mxPoint x="380" y="545" as="sourcePoint" />
            <mxPoint x="430" y="490" as="targetPoint" />
          </mxGeometry>
        </mxCell>
        <mxCell id="rZwhFmC9a54iaUENyT74-85" value="" style="endArrow=classic;html=1;rounded=0;entryX=0;entryY=0.5;entryDx=0;entryDy=0;exitX=1;exitY=1;exitDx=0;exitDy=0;" parent="1" source="rZwhFmC9a54iaUENyT74-89" target="rZwhFmC9a54iaUENyT74-67" edge="1">
          <mxGeometry width="50" height="50" relative="1" as="geometry">
            <mxPoint x="372.52" y="557.5999999999999" as="sourcePoint" />
            <mxPoint x="370" y="530" as="targetPoint" />
          </mxGeometry>
        </mxCell>
        <mxCell id="rZwhFmC9a54iaUENyT74-86" value="exercise" style="ellipse;whiteSpace=wrap;html=1;" parent="1" vertex="1">
          <mxGeometry x="260" y="380" width="100" height="50" as="geometry" />
        </mxCell>
        <mxCell id="rZwhFmC9a54iaUENyT74-87" value="" style="endArrow=classic;html=1;rounded=0;entryX=0.084;entryY=0.336;entryDx=0;entryDy=0;entryPerimeter=0;" parent="1" target="rZwhFmC9a54iaUENyT74-89" edge="1">
          <mxGeometry width="50" height="50" relative="1" as="geometry">
            <mxPoint x="150" y="470" as="sourcePoint" />
            <mxPoint x="270" y="545" as="targetPoint" />
          </mxGeometry>
        </mxCell>
        <mxCell id="rZwhFmC9a54iaUENyT74-88" value="" style="endArrow=classic;html=1;rounded=0;entryX=0;entryY=0;entryDx=0;entryDy=0;" parent="1" target="rZwhFmC9a54iaUENyT74-89" edge="1">
          <mxGeometry width="50" height="50" relative="1" as="geometry">
            <mxPoint x="140" y="190" as="sourcePoint" />
            <mxPoint x="276.5999999999999" y="533.5999999999999" as="targetPoint" />
          </mxGeometry>
        </mxCell>
        <mxCell id="rZwhFmC9a54iaUENyT74-89" value="payment" style="ellipse;whiteSpace=wrap;html=1;" parent="1" vertex="1">
          <mxGeometry x="270" y="580" width="110" height="50" as="geometry" />
        </mxCell>
        <mxCell id="rZwhFmC9a54iaUENyT74-90" value="Login" style="ellipse;whiteSpace=wrap;html=1;" parent="1" vertex="1">
          <mxGeometry x="297.5" y="510" width="100" height="50" as="geometry" />
        </mxCell>
        <mxCell id="rZwhFmC9a54iaUENyT74-91" value="" style="endArrow=classic;html=1;rounded=0;entryX=0;entryY=0.5;entryDx=0;entryDy=0;" parent="1" target="rZwhFmC9a54iaUENyT74-90" edge="1">
          <mxGeometry width="50" height="50" relative="1" as="geometry">
            <mxPoint x="150" y="190" as="sourcePoint" />
            <mxPoint x="200" y="140" as="targetPoint" />
          </mxGeometry>
        </mxCell>
        <mxCell id="rZwhFmC9a54iaUENyT74-92" value="" style="endArrow=classic;html=1;rounded=0;entryX=0.066;entryY=0.648;entryDx=0;entryDy=0;entryPerimeter=0;" parent="1" target="rZwhFmC9a54iaUENyT74-90" edge="1">
          <mxGeometry width="50" height="50" relative="1" as="geometry">
            <mxPoint x="160" y="470" as="sourcePoint" />
            <mxPoint x="210" y="420" as="targetPoint" />
          </mxGeometry>
        </mxCell>
        <mxCell id="rZwhFmC9a54iaUENyT74-93" value="Admin&lt;div&gt;&lt;br&gt;&lt;/div&gt;" style="shape=umlActor;verticalLabelPosition=bottom;verticalAlign=top;html=1;outlineConnect=0;" parent="1" vertex="1">
          <mxGeometry x="970" y="220" width="30" height="60" as="geometry" />
        </mxCell>
        <mxCell id="rZwhFmC9a54iaUENyT74-94" value="coach&lt;div&gt;&lt;br&gt;&lt;/div&gt;" style="shape=umlActor;verticalLabelPosition=bottom;verticalAlign=top;html=1;outlineConnect=0;" parent="1" vertex="1">
          <mxGeometry x="120" y="310" width="30" height="60" as="geometry" />
        </mxCell>
        <mxCell id="rZwhFmC9a54iaUENyT74-95" value="" style="endArrow=classic;html=1;rounded=0;" parent="1" target="rZwhFmC9a54iaUENyT74-86" edge="1">
          <mxGeometry width="50" height="50" relative="1" as="geometry">
            <mxPoint x="160" y="360" as="sourcePoint" />
            <mxPoint x="210" y="310" as="targetPoint" />
          </mxGeometry>
        </mxCell>
        <mxCell id="rZwhFmC9a54iaUENyT74-96" value="&lt;br&gt;&lt;span style=&quot;color: rgb(0, 0, 0); font-family: Helvetica; font-style: normal; font-variant-ligatures: normal; font-variant-caps: normal; font-weight: 400; letter-spacing: normal; orphans: 2; text-align: center; text-indent: 0px; text-transform: none; widows: 2; word-spacing: 0px; -webkit-text-stroke-width: 0px; white-space: nowrap; background-color: rgb(251, 251, 251); text-decoration-thickness: initial; text-decoration-style: initial; text-decoration-color: initial; float: none; display: inline !important;&quot;&gt;&lt;font style=&quot;font-size: 14px;&quot;&gt;receptionist&lt;/font&gt;&lt;/span&gt;&lt;div&gt;&lt;br/&gt;&lt;/div&gt;" style="ellipse;whiteSpace=wrap;html=1;" parent="1" vertex="1">
          <mxGeometry x="760" y="220" width="100" height="50" as="geometry" />
        </mxCell>
        <mxCell id="rZwhFmC9a54iaUENyT74-97" value="Add" style="ellipse;whiteSpace=wrap;html=1;" parent="1" vertex="1">
          <mxGeometry x="410" y="40" width="80" height="40" as="geometry" />
        </mxCell>
        <mxCell id="rZwhFmC9a54iaUENyT74-98" value="Add" style="ellipse;whiteSpace=wrap;html=1;" parent="1" vertex="1">
          <mxGeometry x="660" y="150" width="80" height="40" as="geometry" />
        </mxCell>
        <mxCell id="rZwhFmC9a54iaUENyT74-99" value="Edit" style="ellipse;whiteSpace=wrap;html=1;" parent="1" vertex="1">
          <mxGeometry x="660" y="220" width="80" height="40" as="geometry" />
        </mxCell>
        <mxCell id="rZwhFmC9a54iaUENyT74-100" value="Delet" style="ellipse;whiteSpace=wrap;html=1;" parent="1" vertex="1">
          <mxGeometry x="660" y="280" width="80" height="40" as="geometry" />
        </mxCell>
        <mxCell id="rZwhFmC9a54iaUENyT74-101" value="" style="endArrow=classic;html=1;rounded=0;entryX=1;entryY=0.5;entryDx=0;entryDy=0;" parent="1" target="rZwhFmC9a54iaUENyT74-96" edge="1">
          <mxGeometry width="50" height="50" relative="1" as="geometry">
            <mxPoint x="970" y="260" as="sourcePoint" />
            <mxPoint x="1020" y="210" as="targetPoint" />
          </mxGeometry>
        </mxCell>
        <mxCell id="rZwhFmC9a54iaUENyT74-102" value="" style="endArrow=classic;html=1;rounded=0;exitX=0;exitY=0;exitDx=0;exitDy=0;entryX=1;entryY=1;entryDx=0;entryDy=0;" parent="1" source="rZwhFmC9a54iaUENyT74-96" target="rZwhFmC9a54iaUENyT74-98" edge="1">
          <mxGeometry width="50" height="50" relative="1" as="geometry">
            <mxPoint x="630" y="220" as="sourcePoint" />
            <mxPoint x="860" y="170" as="targetPoint" />
          </mxGeometry>
        </mxCell>
        <mxCell id="rZwhFmC9a54iaUENyT74-103" value="" style="endArrow=classic;html=1;rounded=0;exitX=0;exitY=0.5;exitDx=0;exitDy=0;entryX=1;entryY=0.5;entryDx=0;entryDy=0;" parent="1" source="rZwhFmC9a54iaUENyT74-96" target="rZwhFmC9a54iaUENyT74-99" edge="1">
          <mxGeometry width="50" height="50" relative="1" as="geometry">
            <mxPoint x="670" y="270" as="sourcePoint" />
            <mxPoint x="720" y="220" as="targetPoint" />
          </mxGeometry>
        </mxCell>
        <mxCell id="rZwhFmC9a54iaUENyT74-104" value="" style="endArrow=classic;html=1;rounded=0;entryX=0.97;entryY=0.34;entryDx=0;entryDy=0;entryPerimeter=0;exitX=0;exitY=1;exitDx=0;exitDy=0;" parent="1" source="rZwhFmC9a54iaUENyT74-96" target="rZwhFmC9a54iaUENyT74-100" edge="1">
          <mxGeometry width="50" height="50" relative="1" as="geometry">
            <mxPoint x="750" y="300" as="sourcePoint" />
            <mxPoint x="800" y="250" as="targetPoint" />
          </mxGeometry>
        </mxCell>
        <mxCell id="BcApN3gLyNzpCtD41YUA-2" value="GYM MANAGMENT SYSTEM" style="text;strokeColor=none;align=center;fillColor=none;html=1;verticalAlign=middle;whiteSpace=wrap;rounded=0;" vertex="1" parent="1">
          <mxGeometry x="480" y="30" width="230" height="30" as="geometry" />
        </mxCell>
      </root>
    </mxGraphModel>
  </diagram>
</mxfile>
